<svg width="147" height="31" viewBox="0 0 147 31" fill="none" xmlns="http://www.w3.org/2000/svg">
<path d="M8.82955 17.7273V30H0.988636V8.18182H8.43182V12.3295H8.65909C9.13258 10.947 9.96591 9.86269 11.1591 9.0767C12.3617 8.29072 13.7633 7.89773 15.3636 7.89773C16.9072 7.89773 18.2472 8.25284 19.3835 8.96307C20.5294 9.66383 21.4148 10.6297 22.0398 11.8608C22.6742 13.0919 22.9867 14.4981 22.9773 16.0795V30H15.1364V17.7273C15.1458 16.6477 14.8712 15.8002 14.3125 15.1847C13.7633 14.5691 12.9962 14.2614 12.0114 14.2614C11.3674 14.2614 10.804 14.4034 10.321 14.6875C9.84754 14.9621 9.48295 15.3598 9.22727 15.8807C8.97159 16.392 8.83902 17.0076 8.82955 17.7273ZM37.3594 30.3977C34.992 30.3977 32.9654 29.929 31.2798 28.9915C29.5942 28.0445 28.3016 26.7282 27.402 25.0426C26.5024 23.3475 26.0526 21.3826 26.0526 19.1477C26.0526 16.9129 26.5024 14.9527 27.402 13.267C28.3016 11.572 29.5942 10.2557 31.2798 9.31818C32.9654 8.37121 34.992 7.89773 37.3594 7.89773C39.7268 7.89773 41.7533 8.37121 43.4389 9.31818C45.1245 10.2557 46.4171 11.572 47.3168 13.267C48.2164 14.9527 48.6662 16.9129 48.6662 19.1477C48.6662 21.3826 48.2164 23.3475 47.3168 25.0426C46.4171 26.7282 45.1245 28.0445 43.4389 28.9915C41.7533 29.929 39.7268 30.3977 37.3594 30.3977ZM37.4162 24.6023C38.0791 24.6023 38.652 24.3797 39.1349 23.9347C39.6179 23.4896 39.992 22.8551 40.2571 22.0312C40.5223 21.2074 40.6548 20.2273 40.6548 19.0909C40.6548 17.9451 40.5223 16.965 40.2571 16.1506C39.992 15.3267 39.6179 14.6922 39.1349 14.2472C38.652 13.8021 38.0791 13.5795 37.4162 13.5795C36.7154 13.5795 36.1141 13.8021 35.6122 14.2472C35.1103 14.6922 34.7268 15.3267 34.4616 16.1506C34.1965 16.965 34.0639 17.9451 34.0639 19.0909C34.0639 20.2273 34.1965 21.2074 34.4616 22.0312C34.7268 22.8551 35.1103 23.4896 35.6122 23.9347C36.1141 24.3797 36.7154 24.6023 37.4162 24.6023ZM73.1726 8.18182L65.843 30H56.7521L49.4226 8.18182H57.6612L61.1839 22.6136H61.4112L64.9339 8.18182H73.1726ZM80.9354 30.3409C79.5433 30.3409 78.3123 30.1136 77.2422 29.6591C76.1816 29.1951 75.3482 28.4943 74.7422 27.5568C74.1361 26.6193 73.8331 25.4261 73.8331 23.9773C73.8331 22.7841 74.0367 21.7661 74.4439 20.9233C74.8511 20.071 75.4193 19.375 76.1484 18.8352C76.8776 18.2955 77.7251 17.8835 78.6911 17.5994C79.6664 17.3153 80.7176 17.1307 81.8445 17.0455C83.0661 16.9508 84.0462 16.8371 84.7848 16.7045C85.5329 16.5625 86.0727 16.3684 86.4041 16.1222C86.7356 15.8665 86.9013 15.5303 86.9013 15.1136V15.0568C86.9013 14.4886 86.6835 14.053 86.2479 13.75C85.8123 13.447 85.2536 13.2955 84.5717 13.2955C83.8236 13.2955 83.2128 13.4612 82.7393 13.7926C82.2753 14.1146 81.996 14.6117 81.9013 15.2841H74.6854C74.7801 13.9583 75.2015 12.7367 75.9496 11.6193C76.7071 10.4924 77.8104 9.5928 79.2592 8.92045C80.7081 8.23864 82.5168 7.89773 84.6854 7.89773C86.2479 7.89773 87.6494 8.08239 88.8899 8.4517C90.1304 8.81155 91.1863 9.31818 92.0575 9.97159C92.9287 10.6155 93.5916 11.3731 94.0462 12.2443C94.5102 13.1061 94.7422 14.0436 94.7422 15.0568V30H87.4126V26.9318H87.2422C86.8066 27.7462 86.2763 28.4044 85.6513 28.9062C85.0357 29.4081 84.3303 29.7727 83.5348 30C82.7488 30.2273 81.8823 30.3409 80.9354 30.3409ZM83.4922 25.3977C84.0888 25.3977 84.6475 25.2746 85.1683 25.0284C85.6986 24.7822 86.1295 24.4271 86.4609 23.9631C86.7924 23.4991 86.9581 22.9356 86.9581 22.2727V20.4545C86.7498 20.5398 86.5272 20.6203 86.2905 20.696C86.0632 20.7718 85.817 20.8428 85.5518 20.9091C85.2962 20.9754 85.0215 21.0369 84.728 21.0938C84.4439 21.1506 84.1456 21.2027 83.8331 21.25C83.227 21.3447 82.7299 21.5009 82.3416 21.7188C81.9628 21.9271 81.6787 22.1875 81.4893 22.5C81.3094 22.803 81.2195 23.1439 81.2195 23.5227C81.2195 24.1288 81.4325 24.5928 81.8587 24.9148C82.2848 25.2367 82.8293 25.3977 83.4922 25.3977Z" fill="#4EA8DE"/>
<path d="M106.386 30.2841C104.833 30.2841 103.403 29.8769 102.097 29.0625C100.799 28.2481 99.7576 27.0123 98.9716 25.3551C98.1951 23.6979 97.8068 21.6098 97.8068 19.0909C97.8068 16.4583 98.214 14.3182 99.0284 12.6705C99.8523 11.0227 100.913 9.81534 102.21 9.0483C103.517 8.28125 104.89 7.89773 106.33 7.89773C107.409 7.89773 108.356 8.08712 109.17 8.46591C109.985 8.83523 110.667 9.33239 111.216 9.95739C111.765 10.5729 112.182 11.25 112.466 11.9886H112.58V0.90909H120.42V30H112.636V26.4205H112.466C112.163 27.1591 111.727 27.822 111.159 28.4091C110.6 28.9867 109.919 29.446 109.114 29.7869C108.318 30.1184 107.409 30.2841 106.386 30.2841ZM109.284 24.2614C110.004 24.2614 110.619 24.053 111.131 23.6364C111.652 23.2102 112.049 22.6136 112.324 21.8466C112.608 21.0701 112.75 20.1515 112.75 19.0909C112.75 18.0114 112.608 17.0881 112.324 16.321C112.049 15.5445 111.652 14.9527 111.131 14.5455C110.619 14.1288 110.004 13.9205 109.284 13.9205C108.564 13.9205 107.949 14.1288 107.438 14.5455C106.936 14.9527 106.547 15.5445 106.273 16.321C106.008 17.0881 105.875 18.0114 105.875 19.0909C105.875 20.1705 106.008 21.0985 106.273 21.875C106.547 22.642 106.936 23.2339 107.438 23.6506C107.949 24.0578 108.564 24.2614 109.284 24.2614ZM134.781 30.3977C132.414 30.3977 130.387 29.929 128.702 28.9915C127.016 28.0445 125.723 26.7282 124.824 25.0426C123.924 23.3475 123.474 21.3826 123.474 19.1477C123.474 16.9129 123.924 14.9527 124.824 13.267C125.723 11.572 127.016 10.2557 128.702 9.31818C130.387 8.37121 132.414 7.89773 134.781 7.89773C137.149 7.89773 139.175 8.37121 140.861 9.31818C142.546 10.2557 143.839 11.572 144.739 13.267C145.638 14.9527 146.088 16.9129 146.088 19.1477C146.088 21.3826 145.638 23.3475 144.739 25.0426C143.839 26.7282 142.546 28.0445 140.861 28.9915C139.175 29.929 137.149 30.3977 134.781 30.3977ZM134.838 24.6023C135.501 24.6023 136.074 24.3797 136.557 23.9347C137.04 23.4896 137.414 22.8551 137.679 22.0312C137.944 21.2074 138.077 20.2273 138.077 19.0909C138.077 17.9451 137.944 16.965 137.679 16.1506C137.414 15.3267 137.04 14.6922 136.557 14.2472C136.074 13.8021 135.501 13.5795 134.838 13.5795C134.137 13.5795 133.536 13.8021 133.034 14.2472C132.532 14.6922 132.149 15.3267 131.884 16.1506C131.618 16.965 131.486 17.9451 131.486 19.0909C131.486 20.2273 131.618 21.2074 131.884 22.0312C132.149 22.8551 132.532 23.4896 133.034 23.9347C133.536 24.3797 134.137 24.6023 134.838 24.6023Z" fill="#5E60CE"/>
</svg>
